<svg width="162" height="227" viewBox="0 0 162 227" fill="none" xmlns="http://www.w3.org/2000/svg">
<path fill-rule="evenodd" clip-rule="evenodd" d="M117.056 55.8947C117.056 55.8947 104.147 47.319 104.554 29.1377C104.951 10.9536 116.513 0.140717 116.513 0.140717C116.513 0.140717 131.362 10.5546 130.96 28.3016C130.567 46.0173 117.056 55.8947 117.056 55.8947ZM101.256 94.8674C101.256 94.8674 85.5513 89.2633 80.2144 72.37C74.8879 55.4795 86.2395 41.2247 86.2395 41.2247C86.2395 41.2247 100.327 48.2615 105.812 65.5967C111.274 82.9368 101.256 94.8674 101.256 94.8674ZM129.012 93.2423C129.012 93.2423 123.01 78.8745 133.387 63.9453C143.756 49.0028 159.326 46.4479 159.326 46.4479C159.326 46.4479 165.901 63.4048 155.778 77.9663C145.686 92.5362 129.012 93.2423 129.012 93.2423ZM86.2087 141.942C86.2087 141.942 97.6851 131.408 94.52 113.498C91.3521 95.5995 78.2993 86.773 78.2993 86.773C78.2993 86.773 65.2117 99.423 68.2653 116.878C71.3556 134.32 86.2087 141.942 86.2087 141.942ZM54.7965 116.61C54.7965 116.61 66.9528 126.627 68.4315 144.777C69.9026 162.914 57.4993 172.306 57.4993 172.306C57.4993 172.306 43.4575 163.315 42.0169 145.644C40.5763 127.974 54.7965 116.61 54.7965 116.61ZM12.7148 170.531C9.02924 187.89 19.9054 200.569 19.9054 200.569C19.9054 200.569 34.4754 195.154 38.2604 177.341C42.0351 159.526 33.289 146.401 33.289 146.401C33.289 146.401 16.4108 153.175 12.7148 170.531ZM132.061 102.808C117.794 114.013 119.289 129.531 119.289 129.531C119.289 129.531 135.406 133.804 149.345 122.868C163.281 111.943 161.967 93.7586 161.967 93.7586C161.967 93.7586 146.361 91.5999 132.061 102.808ZM97.5465 163.593C97.5465 163.593 99.5158 148.121 115.915 140.358C132.318 132.619 147.037 138.216 147.037 138.216C147.037 138.216 144.289 156.261 128.305 163.801C112.322 171.34 97.5465 163.593 97.5465 163.593ZM95.8331 172.99C77.8838 175.388 71.3532 189.56 71.3532 189.56C71.3532 189.56 83.0716 201.459 100.575 199.109C118.065 196.767 126.117 180.399 126.117 180.399C126.117 180.399 113.806 170.587 95.8331 172.99ZM60.0945 200.241C78.1914 200.028 89.2817 211.245 89.2817 211.245C89.2817 211.245 79.367 226.522 61.7146 226.776C44.0762 226.978 33.8687 213.751 33.8687 213.751C33.8687 213.751 42.0052 200.468 60.0945 200.241ZM121.081 63.9098L112.586 65.6002C113.267 69.1122 127.608 152.63 0.9241 213.583L4.61685 221.399C137.707 157.391 121.254 64.8388 121.081 63.9098Z" fill="url(#paint0_linear)"/>
<defs>
<linearGradient id="paint0_linear" x1="81.4623" y1="0.140717" x2="81.4623" y2="226.778" gradientUnits="userSpaceOnUse">
<stop stop-color="#DCDDE0"/>
<stop offset="1" stop-color="#DCDDE0" stop-opacity="0"/>
</linearGradient>
</defs>
</svg>
